<?xml version="1.0" encoding="UTF-8" standalone="no"?>
<!-- Created with Inkscape (http://www.inkscape.org/) -->

<svg
   viewBox="53 18 100 115"
   version="1.1"
   id="svg1"
   xml:space="preserve"
   sodipodi:docname="Pos Op Monitor final.svg"
   inkscape:version="1.4.2 (f4327f4, 2025-05-13)"
   xmlns:inkscape="http://www.inkscape.org/namespaces/inkscape"
   xmlns:sodipodi="http://sodipodi.sourceforge.net/DTD/sodipodi-0.dtd"
   xmlns:xlink="http://www.w3.org/1999/xlink"
   xmlns="http://www.w3.org/2000/svg"
   xmlns:svg="http://www.w3.org/2000/svg"><sodipodi:namedview
     id="namedview1"
     pagecolor="#505050"
     bordercolor="#eeeeee"
     borderopacity="1"
     inkscape:showpageshadow="0"
     inkscape:pageopacity="0"
     inkscape:pagecheckerboard="0"
     inkscape:deskcolor="#505050"
     inkscape:document-units="mm"
     inkscape:zoom="1"
     inkscape:cx="494"
     inkscape:cy="303.5"
     inkscape:window-width="1920"
     inkscape:window-height="1017"
     inkscape:window-x="-8"
     inkscape:window-y="-8"
     inkscape:window-maximized="1"
     inkscape:current-layer="layer1" /><defs
     id="defs1"><linearGradient
       id="linearGradient11"
       inkscape:collect="always"><stop
         style="stop-color:#fff8eb;stop-opacity:1"
         offset="0"
         id="stop7" /><stop
         style="stop-color:#e9d9c1;stop-opacity:1;"
         offset="0.18393269"
         id="stop8" /><stop
         style="stop-color:#d8c09e;stop-opacity:1"
         offset="0.38503069"
         id="stop9" /><stop
         style="stop-color:#d8c19c;stop-opacity:0.24492754;"
         offset="0.76069701"
         id="stop10" /><stop
         style="stop-color:#d8c39a;stop-opacity:0;"
         offset="1"
         id="stop11" /></linearGradient><linearGradient
       id="linearGradient6"
       inkscape:collect="always"><stop
         style="stop-color:#ffffff;stop-opacity:0.5;"
         offset="0"
         id="stop5" /><stop
         style="stop-color:#ffffff;stop-opacity:0;"
         offset="1"
         id="stop6" /></linearGradient><linearGradient
       id="linearGradient23"
       inkscape:collect="always"><stop
         style="stop-color:#2432ad;stop-opacity:1"
         offset="0"
         id="stop23" /><stop
         style="stop-color:#2db368;stop-opacity:1"
         offset="1"
         id="stop24" /></linearGradient><radialGradient
       inkscape:collect="always"
       xlink:href="#linearGradient11"
       id="radialGradient40-4-7"
       cx="1050.9686"
       cy="258.66409"
       fx="1050.9686"
       fy="258.66409"
       r="44.667419"
       gradientTransform="matrix(0,-0.09129149,0.69394048,0,-67.36075,194.79679)"
       gradientUnits="userSpaceOnUse" /><linearGradient
       inkscape:collect="always"
       xlink:href="#linearGradient23"
       id="linearGradient2"
       gradientUnits="userSpaceOnUse"
       x1="663.46674"
       y1="62.771786"
       x2="823.38336"
       y2="230.1875"
       gradientTransform="matrix(0.48834348,0,0,0.48834348,-254.36912,-4.7478723)" /><radialGradient
       inkscape:collect="always"
       xlink:href="#linearGradient6"
       id="radialGradient4"
       cx="809.39233"
       cy="580.02161"
       fx="809.39233"
       fy="580.02161"
       r="6.9222808"
       gradientUnits="userSpaceOnUse"
       gradientTransform="matrix(0.38568346,0,0,0.38568346,-187.126,-142.14723)" /><radialGradient
       inkscape:collect="always"
       xlink:href="#linearGradient6"
       id="radialGradient4-3"
       cx="809.39233"
       cy="580.02161"
       fx="809.39233"
       fy="580.02161"
       r="6.9222808"
       gradientUnits="userSpaceOnUse"
       gradientTransform="matrix(0.38568346,0,0,0.38568346,-193.58655,-183.12681)" /><radialGradient
       inkscape:collect="always"
       xlink:href="#linearGradient6"
       id="radialGradient4-3-2"
       cx="809.39233"
       cy="580.02161"
       fx="809.39233"
       fy="580.02161"
       r="6.9222808"
       gradientUnits="userSpaceOnUse"
       gradientTransform="matrix(0.26689721,0,0,0.26689721,-97.306191,-94.695046)" /><radialGradient
       inkscape:collect="always"
       xlink:href="#linearGradient6"
       id="radialGradient4-3-2-6"
       cx="809.39233"
       cy="580.02161"
       fx="809.39233"
       fy="580.02161"
       r="6.9222808"
       gradientUnits="userSpaceOnUse"
       gradientTransform="matrix(0.15800981,0,0,0.15800981,-0.26384033,-39.428179)" /><radialGradient
       inkscape:collect="always"
       xlink:href="#linearGradient6"
       id="radialGradient4-3-2-6-4"
       cx="809.39233"
       cy="580.02161"
       fx="809.39233"
       fy="580.02161"
       r="6.9222808"
       gradientUnits="userSpaceOnUse"
       gradientTransform="matrix(0.15800981,0,0,0.15800981,2.6916144,-34.919352)" /><radialGradient
       inkscape:collect="always"
       xlink:href="#linearGradient6"
       id="radialGradient4-3-2-6-4-6"
       cx="809.39233"
       cy="580.02161"
       fx="809.39233"
       fy="580.02161"
       r="6.9222808"
       gradientUnits="userSpaceOnUse"
       gradientTransform="matrix(0.23720064,0,0,0.23720064,-59.935922,-70.620601)" /><radialGradient
       inkscape:collect="always"
       xlink:href="#linearGradient6"
       id="radialGradient4-6"
       cx="809.39233"
       cy="580.02161"
       fx="809.39233"
       fy="580.02161"
       r="6.9222808"
       gradientUnits="userSpaceOnUse"
       gradientTransform="matrix(0.55066436,0,0,0.55066436,-354.01368,-245.62999)" /><radialGradient
       inkscape:collect="always"
       xlink:href="#linearGradient6"
       id="radialGradient4-37"
       cx="809.39233"
       cy="580.02161"
       fx="809.39233"
       fy="580.02161"
       r="6.9222808"
       gradientUnits="userSpaceOnUse"
       gradientTransform="matrix(0.22236069,0,0,0.22236069,-61.740429,-41.351163)" /><radialGradient
       inkscape:collect="always"
       xlink:href="#linearGradient6"
       id="radialGradient4-3-2-6-4-6-9"
       cx="809.39233"
       cy="580.02161"
       fx="809.39233"
       fy="580.02161"
       r="6.9222808"
       gradientUnits="userSpaceOnUse"
       gradientTransform="matrix(0.23720064,0,0,0.23720064,-93.078661,-84.933084)" /></defs><g
     inkscape:label="Layer 1"
     inkscape:groupmode="layer"
     id="layer1"><path
       id="rect12"
       style="fill:#ffffff;fill-opacity:1;stroke:none;stroke-width:0.1;stroke-dasharray:none;paint-order:markers fill stroke"
       d="m 125.13241,122.08195 c 0.14512,0 0.26692,0.0461 0.36587,0.1385 0.099,0.0923 0.14831,0.2077 0.14831,0.34623 0,0.14513 -0.0494,0.26692 -0.14831,0.36587 -0.0923,0.0989 -0.21415,0.14831 -0.36587,0.14831 -0.14512,0 -0.26744,-0.0494 -0.36638,-0.14831 -0.099,-0.099 -0.14831,-0.21752 -0.14831,-0.35605 0,-0.13853 0.0493,-0.25388 0.14831,-0.34623 0.0989,-0.099 0.22126,-0.14832 0.36638,-0.14832 z m 2.29495,0.99891 h 0.70229 v 1.14825 h 1.58336 v 0.58343 h -1.58336 v 3.1073 c 0,0.30344 0.0762,0.53737 0.22789,0.70228 0.15831,0.16492 0.38257,0.24753 0.67283,0.24753 0.31004,0 0.56703,-0.0891 0.77153,-0.26716 l 0.24753,0.50436 c -0.13853,0.12534 -0.30698,0.21813 -0.50488,0.2775 -0.1913,0.0594 -0.38927,0.0889 -0.59376,0.0889 -0.48815,0 -0.86372,-0.13198 -1.12758,-0.39584 -0.26387,-0.26386 -0.39585,-0.63673 -0.39585,-1.11828 v -3.14657 h -0.93017 v -0.58343 h 0.93017 z m -23.07249,1.09864 c 0.50793,0 0.93983,0.12876 1.29605,0.38602 0.24768,0.1743 0.43471,0.41084 0.5612,0.70952 0.15643,-0.27759 0.37501,-0.51091 0.65578,-0.6997 0.3892,-0.26386 0.85434,-0.39584 1.39526,-0.39584 0.42218,0 0.78808,0.0826 1.09812,0.24753 0.31664,0.15832 0.56075,0.40191 0.73226,0.73174 0.17811,0.32983 0.26717,0.74561 0.26717,1.24695 v 3.0179 h -0.70229 v -2.94865 c 0,-0.54752 -0.13198,-0.95956 -0.39584,-1.23662 -0.25727,-0.28365 -0.62317,-0.42581 -1.09812,-0.42581 -0.35622,0 -0.66631,0.0762 -0.93018,0.22789 -0.25727,0.14512 -0.45846,0.3592 -0.60358,0.64285 -0.13853,0.27706 -0.20774,0.61345 -0.20774,1.00925 v 2.73109 h -0.7028 v -2.94865 c 0,-0.54752 -0.13198,-0.95956 -0.39584,-1.23662 -0.26387,-0.28365 -0.63299,-0.42581 -1.10794,-0.42581 -0.34962,0 -0.6565,0.0762 -0.92036,0.22789 -0.26387,0.14512 -0.46828,0.3592 -0.6134,0.64285 -0.13853,0.27706 -0.20774,0.61345 -0.20774,1.00925 v 2.73109 h -0.7028 v -5.19451 h 0.67283 v 0.93741 c 0.15708,-0.27251 0.3749,-0.4924 0.65319,-0.66042 0.35621,-0.21769 0.77522,-0.3266 1.25677,-0.3266 z m 9.90379,0 c 0.51453,0 0.97001,0.11213 1.36581,0.33641 0.40239,0.22428 0.71571,0.53439 0.93999,0.93018 0.23088,0.3958 0.34623,0.85398 0.34623,1.37511 0,0.51453 -0.11535,0.97323 -0.34623,1.37563 -0.22428,0.39579 -0.5376,0.70911 -0.93999,0.93999 -0.4024,0.22428 -0.85788,0.33641 -1.36581,0.33641 -0.50134,0 -0.95308,-0.11213 -1.35547,-0.33641 -0.3958,-0.23088 -0.70912,-0.5442 -0.94,-0.93999 -0.23088,-0.4024 -0.34623,-0.8611 -0.34623,-1.37563 0,-0.52113 0.11535,-0.97931 0.34623,-1.37511 0.23088,-0.39579 0.5442,-0.7059 0.94,-0.93018 0.3958,-0.22428 0.84754,-0.33641 1.35547,-0.33641 z m 6.60941,0 c 0.42218,0 0.79183,0.0826 1.10846,0.24753 0.32324,0.15832 0.57379,0.40191 0.7519,0.73174 0.1847,0.32983 0.27698,0.74561 0.27698,1.24695 v 3.0179 h -0.7028 v -2.94865 c 0,-0.54752 -0.13842,-0.95956 -0.41548,-1.23662 -0.27046,-0.28365 -0.65299,-0.42581 -1.14773,-0.42581 -0.36941,0 -0.6924,0.0762 -0.96945,0.22789 -0.27046,0.14512 -0.48183,0.3592 -0.63355,0.64285 -0.14513,0.27706 -0.21756,0.61345 -0.21756,1.00925 v 2.73109 h -0.7028 v -5.19451 h 0.67283 v 0.94516 c 0.16374,-0.27595 0.39174,-0.49862 0.68316,-0.66817 0.36281,-0.21769 0.7947,-0.3266 1.29604,-0.3266 z m 12.2592,0 c 0.51454,0 0.97002,0.11213 1.36581,0.33641 0.4024,0.22428 0.71572,0.53439 0.94,0.93018 0.23088,0.3958 0.34623,0.85398 0.34623,1.37511 0,0.51453 -0.11535,0.97323 -0.34623,1.37563 -0.22428,0.39579 -0.5376,0.70911 -0.94,0.93999 -0.40239,0.22428 -0.85787,0.33641 -1.36581,0.33641 -0.50134,0 -0.95307,-0.11213 -1.35547,-0.33641 -0.39579,-0.23088 -0.70911,-0.5442 -0.93999,-0.93999 -0.23088,-0.4024 -0.34623,-0.8611 -0.34623,-1.37563 0,-0.52113 0.11535,-0.97931 0.34623,-1.37511 0.23088,-0.39579 0.5442,-0.7059 0.93999,-0.93018 0.3958,-0.22428 0.84753,-0.33641 1.35547,-0.33641 z m 6.56963,0 v 0.68265 h -0.0791 c -0.0264,-0.007 -0.0527,-0.01 -0.0791,-0.01 -0.54752,0 -0.97619,0.16793 -1.28623,0.50436 -0.31004,0.32983 -0.46508,0.80141 -0.46508,1.4149 v 2.65203 h -0.7028 v -5.19451 h 0.67282 v 1.00149 c 0.14862,-0.31476 0.36968,-0.55945 0.66301,-0.73432 0.34302,-0.2111 0.76848,-0.31678 1.27641,-0.31678 z m -14.92105,0.0496 h 0.7028 v 5.19451 h -0.7028 z m -10.50686,0.56379 c -0.3694,0 -0.69935,0.0858 -0.9896,0.25735 -0.29025,0.16491 -0.52147,0.39883 -0.69298,0.70228 -0.17151,0.30344 -0.25683,0.65968 -0.25683,1.06867 0,0.40239 0.0853,0.75863 0.25683,1.06867 0.17151,0.30344 0.40273,0.54111 0.69298,0.71262 0.29025,0.16492 0.61646,0.24753 0.97927,0.24753 0.37601,0 0.70917,-0.0826 0.99942,-0.24753 0.29025,-0.17151 0.51824,-0.40918 0.68316,-0.71262 0.17151,-0.31004 0.25684,-0.66628 0.25684,-1.06867 0,-0.40899 -0.0853,-0.76523 -0.25684,-1.06867 -0.16492,-0.30345 -0.39291,-0.53737 -0.68316,-0.70228 -0.29025,-0.17152 -0.61967,-0.25735 -0.98909,-0.25735 z m 18.8681,0 c -0.3694,0 -0.69884,0.0858 -0.98908,0.25735 -0.29026,0.16491 -0.52148,0.39883 -0.69298,0.70228 -0.17152,0.30344 -0.25735,0.65968 -0.25735,1.06867 0,0.40239 0.0858,0.75863 0.25735,1.06867 0.1715,0.30344 0.40272,0.54111 0.69298,0.71262 0.29024,0.16492 0.61645,0.24753 0.97926,0.24753 0.37601,0 0.70918,-0.0826 0.99943,-0.24753 0.29024,-0.17151 0.51772,-0.40918 0.68264,-0.71262 0.17151,-0.31004 0.25735,-0.66628 0.25735,-1.06867 0,-0.40899 -0.0858,-0.76523 -0.25735,-1.06867 -0.16492,-0.30345 -0.3924,-0.53737 -0.68264,-0.70228 -0.29025,-0.17152 -0.62019,-0.25735 -0.98961,-0.25735 z"
       sodipodi:nodetypes="ssscssscsccccccscscccssscccccscccsccsccscsccsccscsccsccccccssccsccsccsssssccsccscsccsccccccssccsccsccsssscccscsccccccccccccscssccsccsccsscssccsccsccs"
       inkscape:export-filename="Pos Op Monitor final.png"
       inkscape:export-xdpi="552.97998"
       inkscape:export-ydpi="552.97998" /><path
       id="rect11"
       style="fill:#ffffff;fill-opacity:1;stroke-width:0.25;paint-order:markers fill stroke"
       d="m 74.145345,121.66648 h 1.774052 l -1.910994,1.52084 h -1.28881 z m 13.074138,0.41186 c 0.584353,0 1.119282,0.0952 1.60507,0.28525 0.492828,0.19009 0.918898,0.45756 1.277958,0.80254 0.366101,0.34498 0.651074,0.74973 0.855245,1.21439 0.204171,0.45763 0.306441,0.96465 0.306441,1.52084 0,0.54915 -0.10227,1.05947 -0.306441,1.53118 -0.204171,0.46466 -0.489144,0.86993 -0.855245,1.21491 -0.35906,0.33794 -0.78513,0.60159 -1.277958,0.79168 -0.485788,0.19009 -1.017422,0.28525 -1.594735,0.28525 -0.584353,0 -1.126389,-0.0952 -1.626257,-0.28525 -0.492828,-0.19009 -0.922192,-0.45755 -1.288294,-0.80253 -0.35906,-0.34498 -0.640737,-0.74973 -0.844909,-1.2144 -0.197131,-0.46467 -0.29559,-0.97169 -0.29559,-1.52084 0,-0.54915 0.09846,-1.05617 0.29559,-1.52084 0.204172,-0.46466 0.489661,-0.86941 0.855761,-1.21439 0.366101,-0.34498 0.795466,-0.61245 1.288294,-0.80254 0.492828,-0.19009 1.027757,-0.28525 1.60507,-0.28525 z m -23.716899,0.12661 h 3.199805 c 0.661798,0 1.23226,0.10937 1.711007,0.32763 0.478747,0.2112 0.847964,0.5175 1.108459,0.9188 0.260495,0.4013 0.391191,0.8799 0.391191,1.43609 0,0.54915 -0.130696,1.02445 -0.391191,1.42575 -0.260495,0.40131 -0.629712,0.7109 -1.108459,0.92915 -0.478747,0.21121 -1.049209,0.31729 -1.711007,0.31729 h -1.488798 v 2.03812 h -1.711007 z m 23.716899,1.33118 c -0.330899,0 -0.637191,0.0558 -0.918807,0.16847 -0.274576,0.11264 -0.517426,0.27506 -0.728638,0.48627 -0.211212,0.21122 -0.376407,0.46117 -0.496094,0.74983 -0.112646,0.28866 -0.168982,0.60864 -0.168982,0.96066 0,0.34498 0.05634,0.66549 0.168982,0.96118 0.119687,0.28866 0.281587,0.53862 0.485759,0.74983 0.211212,0.21121 0.457357,0.37311 0.738973,0.48576 0.281616,0.11264 0.587908,0.16898 0.918807,0.16898 0.330899,0 0.633896,-0.0563 0.908471,-0.16898 0.281616,-0.11265 0.527761,-0.27455 0.738973,-0.48576 0.211212,-0.21121 0.373112,-0.46117 0.485759,-0.74983 0.119687,-0.28865 0.179834,-0.60916 0.179834,-0.96118 0,-0.35202 -0.06015,-0.672 -0.179834,-0.96066 -0.112647,-0.28866 -0.274547,-0.53861 -0.485759,-0.74983 -0.204171,-0.21121 -0.447021,-0.37363 -0.728637,-0.48627 -0.281616,-0.11265 -0.587908,-0.16847 -0.918807,-0.16847 z m -22.005892,0.0631 v 2.56625 h 1.393713 c 0.52803,0 0.922379,-0.11267 1.182874,-0.33796 0.260494,-0.2253 0.390674,-0.5387 0.390674,-0.94 0,-0.40834 -0.13018,-0.72504 -0.390674,-0.95033 -0.260495,-0.22529 -0.654844,-0.33796 -1.182874,-0.33796 z m 8.488371,0.23254 c 0.598434,0 1.133363,0.12637 1.60507,0.37982 0.471706,0.24642 0.84144,0.58824 1.108976,1.02475 0.267535,0.4365 0.401526,0.943 0.401526,1.52032 0,0.56322 -0.133991,1.06695 -0.401526,1.5105 -0.267536,0.43651 -0.63727,0.78111 -1.108976,1.03456 -0.471707,0.25345 -1.006636,0.38034 -1.60507,0.38034 -0.605475,0 -1.144216,-0.12689 -1.615922,-0.38034 -0.464667,-0.25345 -0.834401,-0.59805 -1.108977,-1.03456 -0.267535,-0.44355 -0.401009,-0.94728 -0.401009,-1.5105 0,-0.57028 0.133474,-1.07348 0.401009,-1.50999 0.274576,-0.44354 0.64431,-0.78866 1.108977,-1.03508 0.471706,-0.25345 1.010447,-0.37982 1.615922,-0.37982 z m 6.431132,0 c 0.387222,0 0.78157,0.0421 1.182873,0.12661 0.401303,0.0845 0.736022,0.20755 1.003556,0.36949 l -0.54932,1.17253 c -0.274575,-0.16192 -0.552442,-0.27131 -0.834058,-0.32763 -0.274576,-0.0633 -0.542557,-0.0951 -0.803051,-0.0951 -0.366101,0 -0.633565,0.0492 -0.802535,0.14779 -0.16897,0.0986 -0.253215,0.22546 -0.253215,0.38034 0,0.14081 0.05963,0.24637 0.179317,0.31678 0.126728,0.0704 0.292439,0.12673 0.496611,0.16898 0.204172,0.0423 0.425702,0.0811 0.665076,0.11627 0.246414,0.0281 0.493075,0.0736 0.739489,0.13695 0.246414,0.0633 0.467945,0.15519 0.665076,0.27491 0.204172,0.11265 0.369884,0.27074 0.49661,0.47491 0.126728,0.19713 0.19017,0.45801 0.19017,0.78187 0,0.35202 -0.106082,0.66542 -0.317294,0.93999 -0.211212,0.26754 -0.516987,0.47867 -0.91829,0.63355 -0.394262,0.15489 -0.876668,0.23203 -1.44694,0.23203 -0.485788,0 -0.95398,-0.0563 -1.404565,-0.16898 -0.443546,-0.11969 -0.795772,-0.26738 -1.056267,-0.44339 l 0.549321,-1.18287 c 0.260495,0.16193 0.566787,0.29592 0.918807,0.40153 0.359061,0.0986 0.71077,0.14779 1.055749,0.14779 0.380182,0 0.648163,-0.0459 0.803052,-0.13746 0.161929,-0.0915 0.242879,-0.2184 0.242879,-0.38034 0,-0.13376 -0.06344,-0.23223 -0.190169,-0.29559 -0.119687,-0.0704 -0.281586,-0.12293 -0.485758,-0.15813 -0.204172,-0.0352 -0.429514,-0.0707 -0.675928,-0.10593 -0.239374,-0.0352 -0.482224,-0.0806 -0.728638,-0.13694 -0.246414,-0.0633 -0.471756,-0.15521 -0.675928,-0.27492 -0.204171,-0.11969 -0.369883,-0.28159 -0.49661,-0.48576 -0.119687,-0.20418 -0.179317,-0.46834 -0.179317,-0.7922 0,-0.35906 0.10227,-0.67576 0.306441,-0.95033 0.211212,-0.27457 0.513692,-0.489 0.907955,-0.64389 0.394262,-0.16193 0.865749,-0.24288 1.414901,-0.24288 z m 15.661576,0 c 0.535071,0 1.013664,0.12307 1.436088,0.36949 0.429465,0.23937 0.767478,0.57738 1.013892,1.01389 0.253454,0.43651 0.380338,0.95063 0.380338,1.54202 0,0.59844 -0.126884,1.11586 -0.380338,1.55236 -0.246414,0.43651 -0.584427,0.77401 -1.013892,1.01338 -0.422424,0.23937 -0.901017,0.35915 -1.436088,0.35915 -0.478747,0 -0.89771,-0.10556 -1.256771,-0.31678 -0.168404,-0.0991 -0.319903,-0.2219 -0.454236,-0.36897 v 2.64997 H 92.436219 V 123.916 h 1.573547 v 0.65629 c 0.142088,-0.17141 0.3078,-0.31268 0.49661,-0.42374 0.359061,-0.21122 0.788426,-0.31678 1.288294,-0.31678 z m -22.092708,1.35134 c -0.274576,0 -0.521238,0.0634 -0.73949,0.19017 -0.218253,0.12673 -0.393849,0.30665 -0.527617,0.53898 -0.126727,0.23234 -0.190169,0.5135 -0.190169,0.8444 0,0.32385 0.06344,0.60553 0.190169,0.84491 0.133768,0.23233 0.309364,0.41225 0.527617,0.53898 0.218252,0.12673 0.464914,0.18965 0.73949,0.18965 0.274575,0 0.52072,-0.0629 0.738973,-0.18965 0.218252,-0.12673 0.39107,-0.30665 0.517797,-0.53898 0.126728,-0.23938 0.19017,-0.52106 0.19017,-0.84491 0,-0.3309 -0.06344,-0.61206 -0.19017,-0.8444 -0.126727,-0.23233 -0.299545,-0.41225 -0.517797,-0.53898 -0.218253,-0.12673 -0.464398,-0.19017 -0.738973,-0.19017 z m 21.807454,5.2e-4 c -0.274575,0 -0.52072,0.0629 -0.738973,0.18965 -0.218252,0.12673 -0.39107,0.30665 -0.517798,0.53898 -0.126727,0.23234 -0.189652,0.51401 -0.189652,0.84491 0,0.32386 0.06292,0.60502 0.189652,0.8444 0.126728,0.23233 0.299546,0.41225 0.517798,0.53898 0.218253,0.12673 0.464398,0.18965 0.738973,0.18965 0.274576,0 0.517426,-0.0629 0.728638,-0.18965 0.218252,-0.12673 0.39107,-0.30665 0.517798,-0.53898 0.133767,-0.23938 0.200504,-0.52054 0.200504,-0.8444 0,-0.3309 -0.06674,-0.61257 -0.200504,-0.84491 -0.126728,-0.23233 -0.299546,-0.41225 -0.517798,-0.53898 -0.211212,-0.12673 -0.454062,-0.18965 -0.728638,-0.18965 z"
       sodipodi:nodetypes="cccccscccscccscccscssscscssscsccccscscsccsscscsccssccssssscscsscssccsccssscccssscsccccsccsccccscscsccscsccssccsccssccccccsssscscssscsssssssscssccsccs" /><path
       id="rect11-8-3-1"
       style="fill:url(#linearGradient2);stroke-width:0.12633;paint-order:markers fill stroke"
       d="m 75.302507,21.802841 h 54.396373 c 10.37924,0 18.7351,8.355852 18.7351,18.735094 v 55.559254 c 0,10.379241 -8.35586,18.735091 -18.7351,18.735091 H 75.302507 c -10.379242,0 -18.735094,-8.35585 -18.735094,-18.735091 V 40.537935 c 0,-10.379242 8.355852,-18.735094 18.735094,-18.735094 z" /><path
       id="path3-1"
       style="fill:url(#radialGradient4-37);stroke-width:0.0555901;paint-order:markers fill stroke"
       d="m 119.77582,87.622849 a 1.5392431,1.5392431 0 0 1 -1.53925,1.539243 1.5392431,1.5392431 0 0 1 -1.53924,-1.539243 1.5392431,1.5392431 0 0 1 1.53924,-1.539244 1.5392431,1.5392431 0 0 1 1.53925,1.539244 z" /><path
       id="path3-8-1-6-9-3"
       style="fill:url(#radialGradient4-3-2-6-4-6);stroke-width:0.0593;paint-order:markers fill stroke"
       d="m 133.69446,66.960892 a 1.6419694,1.6419694 0 0 1 -1.64197,1.641969 1.6419694,1.6419694 0 0 1 -1.64197,-1.641969 1.6419694,1.6419694 0 0 1 1.64197,-1.64197 1.6419694,1.6419694 0 0 1 1.64197,1.64197 z" /><path
       id="path3-8-1-6-9-3-6"
       style="fill:url(#radialGradient4-3-2-6-4-6-9);stroke-width:0.0593;paint-order:markers fill stroke"
       d="m 100.55171,52.648403 a 1.6419694,1.6419694 0 0 1 -1.641966,1.64197 1.6419694,1.6419694 0 0 1 -1.641969,-1.64197 1.6419694,1.6419694 0 0 1 1.641969,-1.641969 1.6419694,1.6419694 0 0 1 1.641966,1.641969 z" /><path
       id="path3-8-1-6-9"
       style="fill:url(#radialGradient4-3-2-6-4);stroke-width:0.0395024;paint-order:markers fill stroke"
       d="m 131.67731,56.729748 a 1.0937883,1.0937883 0 0 1 -1.09378,1.093788 1.0937883,1.0937883 0 0 1 -1.09379,-1.093788 1.0937883,1.0937883 0 0 1 1.09379,-1.093788 1.0937883,1.0937883 0 0 1 1.09378,1.093788 z" /><path
       id="path3"
       style="fill:url(#radialGradient4);stroke-width:0.096421;paint-order:markers fill stroke"
       d="m 127.71303,81.557503 a 2.6698091,2.6698091 0 0 1 -2.66981,2.669809 2.6698091,2.6698091 0 0 1 -2.66981,-2.669809 2.6698091,2.6698091 0 0 1 2.66981,-2.669809 2.6698091,2.6698091 0 0 1 2.66981,2.669809 z" /><path
       id="path3-84"
       style="fill:url(#radialGradient4-6);stroke-width:0.137666;paint-order:markers fill stroke"
       d="m 95.501657,73.767227 a 3.8118534,3.8118534 0 0 1 -3.811853,3.811854 3.8118534,3.8118534 0 0 1 -3.811853,-3.811854 3.8118534,3.8118534 0 0 1 3.811853,-3.811853 3.8118534,3.8118534 0 0 1 3.811853,3.811853 z" /><path
       id="path3-8"
       style="fill:url(#radialGradient4-3);stroke-width:0.096421;paint-order:markers fill stroke"
       d="m 121.25248,40.577911 a 2.6698091,2.6698091 0 0 1 -2.66981,2.669809 2.6698091,2.6698091 0 0 1 -2.66981,-2.669809 2.6698091,2.6698091 0 0 1 2.66981,-2.669809 2.6698091,2.6698091 0 0 1 2.66981,2.669809 z" /><path
       id="path3-8-1"
       style="fill:url(#radialGradient4-3-2);stroke-width:0.0667243;paint-order:markers fill stroke"
       d="m 120.56589,60.111095 a 1.8475374,1.8475374 0 0 1 -1.84754,1.847538 1.8475374,1.8475374 0 0 1 -1.84753,-1.847538 1.8475374,1.8475374 0 0 1 1.84753,-1.847537 1.8475374,1.8475374 0 0 1 1.84754,1.847537 z" /><path
       id="path3-8-1-6"
       style="fill:url(#radialGradient4-3-2-6);stroke-width:0.0395024;paint-order:markers fill stroke"
       d="m 128.72186,52.220913 a 1.0937883,1.0937883 0 0 1 -1.09379,1.093788 1.0937883,1.0937883 0 0 1 -1.09379,-1.093788 1.0937883,1.0937883 0 0 1 1.09379,-1.093788 1.0937883,1.0937883 0 0 1 1.09379,1.093788 z" /><path
       id="path39-7-6"
       style="fill:url(#radialGradient40-4-7);stroke-width:0.163322;paint-order:markers fill stroke"
       d="m 143.52592,98.6427 a 31.259754,4.13588 0 0 1 -31.25975,4.13588 31.259754,4.13588 0 0 1 -31.259757,-4.13588 31.259754,4.13588 0 0 1 31.259757,-4.13588 31.259754,4.13588 0 0 1 31.25975,4.13588 z" /><path
       id="path38-8"
       style="fill:#82d4e8;fill-opacity:1;stroke-width:0.488343"
       d="m 100.69697,64.437978 c -0.38633,0.0237 -1.218121,0.1381 -1.519673,0.16403 -0.467931,0.0402 -0.865589,0.0969 -1.235558,0.16959 -0.57019,0.112 -1.074893,0.26165 -1.671355,0.44541 -1.10644,0.34085 -1.99376,0.72491 -2.819891,1.05132 -0.48893,0.1932 -1.380156,0.64536 -1.825281,0.89663 -1.280095,0.72258 -2.340484,1.60025 -3.130282,2.44107 -0.396975,0.42263 -0.818464,1.06781 -1.07504,1.62922 -0.200025,0.43772 -0.277183,0.82223 -0.310391,1.02508 -0.04151,0.25275 -0.133513,0.6701 -0.143866,1.19442 0.0049,0.46088 0.03565,0.9211 0.06612,1.38116 h 0.727827 c -0.02539,-0.17511 -0.04444,-0.40213 -0.05528,-0.62207 -0.0337,-0.69122 0.02588,-1.61773 0.263461,-2.29091 0.171506,-0.48609 0.678504,-1.21996 1.182035,-1.79402 0.605498,-0.69021 1.214706,-1.20544 1.807408,-1.61383 0.733395,-0.50531 1.630677,-0.98033 2.452413,-1.33573 0.520916,-0.27195 1.107172,-0.52763 1.728443,-0.77449 l 0.213454,-0.0966 c 0.0293,-0.0133 0.06095,-0.0272 0.0944,-0.0414 0.021,-0.008 0.042,-0.0154 0.06285,-0.0232 v 9.8e-4 c 0.3561,-0.14739 0.878921,-0.33157 1.263296,-0.43911 0.986942,-0.27613 1.098626,-0.31558 1.91919,-0.45979 0.215555,-0.063 1.043687,-0.18331 1.39832,-0.21653 z m 2.16703,0.0916 -0.61653,0.63796 c 0,0 0.49103,0.0519 0.90016,0.12291 0.80723,0.0969 1.54556,0.3784 2.23945,0.79366 0.33822,0.20642 0.6826,0.45342 1.03314,0.74118 l 0.15597,-0.38283 c -0.20363,-0.25717 -0.42329,-0.46801 -0.65311,-0.64906 -0.66751,-0.53369 -1.45404,-0.85812 -2.26288,-1.1071 -0.48781,-0.14815 -0.7962,-0.15672 -0.7962,-0.15672 z m -21.004828,0.0497 c -1.423228,0.0128 -2.571665,0.21533 -3.725816,0.75909 -1.001886,0.48662 -1.868012,1.1238 -2.663621,1.97269 -0.806011,0.81644 -1.434802,1.83542 -1.713256,2.9695 -0.08634,0.35157 0.27318,0.46606 0.342183,0.15369 0.277769,-1.25731 1.356764,-2.46439 1.573198,-2.68081 0.574341,-0.57434 1.39383,-1.23646 2.108179,-1.59364 1.302852,-0.61994 2.608145,-0.98344 4.164691,-0.98344 1.232725,0 2.205603,0.21951 2.827948,0.4386 1.482806,0.52202 1.835879,0.66448 2.792592,1.06419 h 2.45e-4 v -2.5e-4 c 0.042,-0.0844 0.415482,-0.29464 0.559983,-0.48528 -1.052771,-0.55234 -2.704202,-1.17719 -4.076105,-1.4064 -0.574048,-0.0959 -1.561234,-0.2136 -2.190221,-0.20794 z m 14.435922,7.49454 c -0.06007,0 -0.240656,0.17661 -0.290711,0.20996 -0.07086,0.0473 -0.235431,0.10744 -0.274547,0.18574 0.07916,0.17285 0.245979,0.55876 0.20237,1.33346 -0.04298,0.76637 -0.299453,1.5465 -0.629133,2.24549 -0.673035,1.33027 -2.374326,2.74516 -4.657771,3.8737 l -0.233429,0.11533 v 9.7e-4 c -0.05435,0.0268 -0.09459,0.0451 -0.145624,0.0707 l -0.569848,0.28163 c 0,-4.9e-4 -0.0049,-0.001 -0.0049,-0.002 -0.368699,0.17314 -0.76416,0.33372 -1.402571,0.49109 -0.964772,0.32485 -1.942387,0.59967 -2.939242,0.80881 -0.927169,0.18756 -2.075899,0.35314 -3.118659,0.31368 -0.878481,-0.0333 -1.441541,-0.0892 -2.25605,-0.34901 -0.69877,-0.22291 -1.406136,-0.54716 -2.031508,-0.95745 -0.493472,-0.32377 -0.852599,-0.56656 -1.277702,-0.96754 -0.548215,-0.51715 -1.205916,-1.45358 -1.567388,-2.20865 -0.190991,-0.39895 -0.398683,-0.94158 -0.552658,-1.28299 h -0.720209 c 0.126286,0.42485 0.321623,1.08962 0.552121,1.5452 0.463292,0.91566 0.846788,1.64916 1.498287,2.34542 1.197516,1.2798 3.296221,2.17088 3.832568,2.31614 0.786478,0.21302 1.711205,0.34573 2.519023,0.34573 1.097942,0 2.283543,-0.15288 3.317512,-0.34194 1.413608,-0.25849 2.850363,-0.80008 4.160394,-1.35693 0.807622,-0.34331 1.517088,-0.62731 2.292675,-1.04856 0.609257,-0.33092 1.154883,-0.71842 1.503023,-0.97561 1.04906,-0.77499 1.944047,-1.74538 2.46633,-2.79361 0.341938,-0.82333 0.549289,-1.53112 0.61751,-2.42163 0.03516,-0.4603 -0.02393,-1.0506 -0.161544,-1.48589 -0.02051,-0.10951 -0.07027,-0.20509 -0.129166,-0.29072 z m -22.297373,0.21753 -0.06763,0.002 c -0.04151,0.20824 -0.138153,0.65557 -0.189771,0.86205 -0.0093,0.0368 0.0073,0.13499 -0.03223,0.16151 l -2.45e-4,2.5e-4 h -2.93e-4 v 2.6e-4 c -4.8e-5,2e-5 0,-3e-5 0,0 l -2.44e-4,2.5e-4 h -2.44e-4 -2.44e-4 c -1.47e-4,1e-5 -3.42e-4,0 0,0 -2.93e-4,-2e-5 0,-1.8e-4 0,-2.5e-4 -0.0337,-0.0119 -0.117984,-0.39909 -0.182445,-0.56857 -0.02442,0.002 -0.05655,0.002 -0.08028,0.003 0.0049,0.32718 -0.0459,1.27009 0.02393,1.89774 0.0063,0.0559 0.03663,0.29699 0.08883,0.32302 0.01905,0.01 0.24295,-0.0162 0.282653,-0.0162 0.08092,0 0.266782,0.0362 0.339154,0 0.08395,-0.0419 0.0073,-0.32768 -0.0073,-0.3957 -0.09039,-0.4068 -0.09972,-0.82746 -0.132487,-1.24413 -0.02295,-0.34292 -0.06285,-0.68078 -0.0376,-1.02508 z m 36.295939,2.34492 v 2.5e-4 c -0.0756,-2e-4 -0.34145,0.33956 -0.35908,0.39242 -0.0668,0.20024 -0.17488,0.39537 -0.24227,0.59758 -0.11163,0.33492 -0.11505,0.71458 -0.2261,1.04981 -0.27728,0.83708 -0.59695,1.6003 -1.02914,2.24246 -0.49244,0.73169 -1.12128,1.31344 -1.82957,1.79528 -1.125,0.71036 -2.7567,1.22787 -3.66605,1.24135 -0.77656,0.0115 -1.7284,-0.0171 -2.65278,-0.21879 -1.695041,-0.36986 -3.481988,-1.04743 -4.085678,-1.23278 l -0.488832,0.44517 c 1.107905,0.44185 2.724615,1.02099 4.45945,1.41421 1.02108,0.21523 2.33585,0.23006 2.82415,0.18952 1.43597,-0.15182 3.03657,-0.74844 3.92467,-1.34608 0.75752,-0.55834 1.47475,-1.2587 2.01583,-2.05066 0.53024,-0.77611 0.89006,-1.6402 1.07704,-2.54428 0.0594,-0.28711 0.55925,-1.70191 0.29076,-1.97042 -0.005,-0.003 -0.007,-0.005 -0.0122,-0.005 z m -22.738987,1.63301 c 0.776857,1.07031 1.27111,1.59622 1.730934,1.99035 0.768799,0.65898 1.649673,1.1331 1.752372,1.11442 0.0815,-0.0148 0.726557,-0.37467 0.686415,-0.46838 -0.63929,-0.3421 -1.379521,-0.77063 -2.001231,-1.26154 -0.404642,-0.35413 -1.005451,-0.87152 -1.338989,-1.37485 z" /><path
       id="path17-3-5"
       style="fill:#ffffff;fill-opacity:1;stroke-width:0.488343"
       d="m 110.44768,58.254258 c -0.42496,0.0148 -0.7771,0.15344 -1.03441,0.36718 -0.28504,0.23683 -0.47218,0.64867 -0.79292,1.30772 -0.92473,1.90035 -1.77781,2.31378 -4.37888,2.12183 -2.61918,-0.19327 -5.122872,-0.11902 -6.634539,0.19684 -1.834609,0.38334 -4.124989,1.15487 -5.544799,1.86796 l -0.655112,0.32933 -1.560844,0.89713 c -0.168088,0.13605 -0.502994,0.37449 -0.886539,0.62787 -2.108227,1.39271 -3.850344,3.60556 -4.361249,5.53952 -0.101184,0.383 -0.216433,1.16614 -0.23167,1.94771 -0.01026,0.51399 0.0376,1.05339 0.08429,1.34077 0.174583,0.003 0.494448,0.01 0.774953,0.0154 -0.03663,-0.25832 -0.07418,-0.76251 -0.07418,-1.29158 0,-0.68278 0.06285,-1.2915 0.200123,-1.85685 0.299892,-1.23496 0.955298,-2.26344 2.089036,-3.4081 2.34776,-2.37044 6.517432,-4.47928 10.29975,-5.20919 1.198249,-0.23123 2.74757,-0.37395 3.77505,-0.36869 0.34247,0.002 0.62698,0.02 0.82114,0.0568 l 0.5532,0.10473 -0.81461,0.80704 -0.29276,0.29021 -1.50429,1.5674 c -0.073,0.078 -0.16033,0.17296 -0.2622,0.28845 -0.45186,0.51211 -1.05809,1.1751 -1.591361,1.74253 -0.181273,0.19284 -1.643373,1.72083 -1.643373,1.72083 l 0.0073,0.007 -0.673035,0.68212 c -0.401565,0.37322 -0.835995,0.77804 -1.190874,1.19467 -0.0049,0.077 -0.03809,0.2013 -0.04151,0.24579 -0.03125,0.39576 -0.04346,0.64672 -0.03907,0.80553 0.0083,0.30816 0.0774,0.26952 0.185717,0.26952 0.09176,0 0.341938,-0.48287 0.946849,-1.08691 0.145526,-0.14534 0.27987,-0.28356 0.400979,-0.40857 0.656041,-0.67718 0.01563,-0.0147 1.242639,-1.19592 0,0 1.384795,-1.39348 1.543409,-1.58229 0.679677,-0.80887 1.5877,-1.8775 2.01813,-2.37495 0.43038,-0.49745 1.14883,-1.34782 1.5964,-1.88966 l 0.81387,-0.98521 1.6151,-0.05 c 1.40096,-0.0434 1.69817,-0.0923 2.24096,-0.36819 0.43384,-0.22053 0.85206,-0.49065 1.15957,-0.86887 0.26956,-0.33158 0.44307,-0.71771 0.68792,-1.25498 0.18211,-0.51989 0.41988,-0.9052 0.65712,-1.08236 0.26161,-0.19536 0.54084,-0.20643 0.75459,-0.20644 0.26751,0 0.45621,0.11045 0.63567,0.26069 0.20452,0.17119 0.36968,0.45749 0.46232,0.84994 0.077,0.32618 0.17888,1.10873 0.15671,1.98657 -0.0273,1.07497 -0.19153,2.28862 -0.33867,2.96244 -0.38374,1.7573 -1.32487,4.40967 -2.26948,6.39577 -0.20202,0.42488 -0.40161,0.78441 -0.46256,0.96603 -0.0634,0.18882 0.10593,0.27086 0.20672,0.17639 0.10441,-0.0979 1.07831,-1.71881 1.60265,-2.6872 0.42466,-0.78436 0.58728,-1.12595 0.71962,-1.46894 0.3205,-0.83078 0.5259,-1.62867 0.7061,-2.35289 0.47598,-1.91271 0.69711,-3.10787 0.64417,-4.68988 -0.0366,-1.09735 -0.2137,-1.90357 -0.54231,-2.43702 -0.26766,-0.43449 -0.76381,-0.77247 -1.59414,-0.81285 -0.0636,-0.003 -0.12605,-0.003 -0.18675,-10e-4 z m -28.778425,3.95117 c -1.35652,0.0513 -2.612979,0.3668 -3.853762,0.93878 -1.725904,0.79558 -3.57233,2.28644 -4.575779,3.69453 -1.557522,2.1856 -2.349811,4.70234 -2.252826,7.15613 l 0.04493,1.14394 c -1.343531,0.0236 -2.687061,0.0439 -4.030641,0.0666 -0.860315,0.0147 -1.764141,0.0346 -2.040836,0.0654 -0.430133,0.0478 -0.595584,0.14298 -0.595584,0.29703 -0.01856,0.20994 0.04297,0.32036 0.585231,0.37778 0.49435,0.0523 1.998546,0.0122 3.253149,0.0177 l 2.965222,-0.008 0.231181,0.89688 c 0.62342,2.42019 2.450752,5.04203 4.477573,6.42454 1.588142,1.083289 3.449121,2.021139 6.713746,2.021139 2.987881,0 5.303069,-0.91369 6.195663,-1.20476 0.992021,-0.323489 1.958941,-0.678289 2.644477,-0.982179 0.702043,-0.31121 1.349,-0.56604 1.437684,-0.56604 0.08868,0 1.055066,0.32293 2.147539,0.71771 3.201677,1.156959 4.898085,1.656129 6.516658,1.653199 1.63853,-0.003 3.18966,-0.229 4.60327,-0.83758 1.82797,-0.786959 3.46987,-2.126949 4.63535,-3.805309 0.3875,-0.55807 0.73579,-1.15893 1.04301,-1.79831 0.358,-0.7452 0.60413,-1.36853 0.76914,-2.01559 0.21799,-0.85463 0.39722,-1.739 0.40381,-3.01189 0.007,-1.28255 -0.14836,-2.06847 -0.37021,-2.91777 -0.12566,-0.48094 -0.30566,-0.98602 -0.56023,-1.6209 -0.14235,0.33233 -0.30048,0.66178 -0.49186,0.98546 0.22864,0.76498 0.48614,1.95289 0.54357,2.63715 0.21668,2.58231 -0.47428,5.35565 -2.04586,7.31965 -1.4015,1.75139 -2.12473,2.44497 -3.74877,3.19082 -0.0924,0.0424 -1.96773,1.023569 -4.63306,1.023569 -0.71108,0 -1.59279,-0.10958 -2.894806,-0.443649 -1.029233,-0.26407 -2.324222,-0.66026 -3.330112,-1.02861 -0.930832,-0.34083 -1.428747,-0.5296 -1.659782,-0.64301 0.168185,-0.0723 0.474865,-0.35296 1.053845,-0.74421 0.07354,-0.0492 0.194898,-0.1271 0.314689,-0.19608 l 1.248401,-1.06243 c 0.157149,-0.16766 0.323967,-0.34564 0.446932,-0.48553 2.205701,-2.50922 2.828046,-5.60615 1.676923,-8.345 -0.180785,-0.4302 -0.28197,-0.72642 -0.47467,-1.1833 -0.231231,0.19875 -0.604667,0.61323 -0.604667,0.61323 0.204567,0.27342 0.331536,0.61778 0.44112,0.93524 0.422955,1.26902 0.50065,3.34086 0.09415,4.60302 -0.515251,1.59976 -1.739772,3.09254 -3.70389,4.5157 -1.52871,1.1077 -3.608761,2.08953 -5.833751,2.79083 -2.176108,0.685889 -3.96071,1.074189 -5.808553,1.063949 -2.451679,-0.0136 -4.54345,-0.631869 -6.316527,-1.845759 -1.065322,-0.72935 -1.981698,-1.66574 -2.738582,-2.80243 -0.494936,-0.74329 -0.980935,-1.82354 -1.282488,-2.71589 -0.117934,-0.34892 -0.22454,-0.55619 -0.340668,-1.13586 h 1.66657 0.105238 l 0.88273,-2.5e-4 c 0.0054,-2.6e-4 0.0054,2e-5 0.0093,0 0.0073,-4e-5 0.01709,-2.6e-4 0.01709,-2.6e-4 h 0.46334 0.928683 c 0.130632,0.007 0.203884,0.0246 0.271031,0.10524 0.114614,0.2355 0.237628,0.46446 0.404006,0.66748 0.142206,0.15617 0.29203,0.23263 0.456797,0.23495 0.05181,4.9e-4 0.10514,-0.006 0.160225,-0.0197 0.115103,-0.0289 0.199831,-0.0975 0.308633,-0.35229 0.04639,-0.10828 0.09679,-0.25011 0.155977,-0.43683 0.122721,-0.38746 0.282312,-0.96801 0.516082,-1.84172 0.532245,-1.98966 0.767676,-2.86921 0.88981,-3.22388 0.05499,-0.15976 0.05465,-0.21833 0.112808,-0.21324 0.05596,-0.005 0.07979,0.13573 0.103724,0.21249 0.169748,0.57702 0.700529,2.77383 1.660221,6.8702 0.193482,0.8257 0.282849,1.45343 0.377539,1.69813 0.101233,0.26147 0.221903,0.26825 0.373778,0.26825 0.139422,0 0.271568,-0.10554 0.363132,-0.29803 0.09918,-0.20857 0.142938,-0.69072 0.341694,-1.47453 0.225224,-0.8883 0.485853,-1.86693 0.566039,-2.17836 l 0.152168,-0.59077 c 0.02393,-0.0956 0.103528,-0.0947 0.136003,0.006 0.0965,0.17756 0.203347,0.32047 0.359861,0.42522 0.169943,0.10126 0.33515,0.14157 0.565062,0.14157 0.532197,0.0217 1.069667,-0.0255 1.60372,-0.0108 0.14035,0.005 0.300282,0.0116 0.464366,0.0116 0,0 1.868499,-0.0373 1.889889,-0.0404 0.09503,-0.0136 0.239581,-0.009 0.378515,-0.0209 0.252815,-0.005 0.397072,-0.10818 0.39673,-0.34573 -2.93e-4,-0.17801 -0.171555,-0.38455 -0.513298,-0.35583 -0.05767,0.005 -0.543331,0.009 -0.543331,0.009 0,0 -1.380986,-0.004 -1.579009,-0.003 -0.299306,0.001 -0.552903,-0.0147 -0.852209,-0.008 -0.763134,0.0152 -1.136668,0.0292 -1.278434,-0.008 -0.04737,-0.0125 -0.120328,-0.0496 -0.172629,-0.0924 -0.125554,-0.10251 -0.208132,-0.33113 -0.32177,-0.55645 -0.103822,-0.20596 -0.163595,-0.37516 -0.25892,-0.49563 -0.102649,-0.12974 -0.240802,-0.20264 -0.350777,-0.20264 -0.147577,0 -0.230205,0.0703 -0.355319,0.36415 -0.139666,0.32799 -0.301112,1.05846 -0.632648,2.30479 -0.165402,0.62181 -0.335785,1.13031 -0.378564,1.13031 -0.04297,0 -0.386085,-1.35158 -0.762842,-3.00382 -0.819196,-3.59249 -1.104144,-5.04939 -1.325169,-5.55618 -0.123599,-0.28344 -0.270542,-0.31091 -0.420903,-0.31091 -0.148359,0 -0.330218,0.12859 -0.400002,0.43204 -0.09479,0.41228 -0.911444,3.49862 -1.410678,5.33158 -0.123795,0.45456 -0.205739,0.83856 -0.277086,1.06293 -0.03418,0.10716 -0.03418,0.24898 -0.131755,0.25034 -0.06764,9.8e-4 -0.202369,-0.20945 -0.289929,-0.31343 -0.07101,-0.0944 -0.146015,-0.17177 -0.254134,-0.24731 -0.109634,-0.0766 -0.25975,-0.0955 -0.394191,-0.0999 -0.341499,-0.0112 -1.007941,0 -1.997911,0 h -2.257612 l -0.08986,-0.71897 c -0.274547,-2.19654 0.579761,-5.40394 2.109985,-7.15966 0.76836,-0.88158 1.460685,-1.62608 2.24096,-2.23363 0.34184,-0.26619 1.145361,-0.83638 2.095042,-1.26305 1.136668,-0.51066 2.538556,-0.85763 4.366328,-0.79922 1.017708,0.0325 2.069453,0.21248 3.167835,0.53879 1.019857,0.30297 2.944321,1.05396 3.77807,1.44853 l 0.863586,-0.47922 -0.74824,-0.33034 c -3.205681,-1.41547 -5.744237,-2.0635 -8.005072,-1.97799 z m 13.522622,4.71961 c -0.296131,0.13162 -0.587721,0.26777 -0.876967,0.4063 0.305752,0.1643 0.671667,0.40962 1.064735,0.71594 0.356442,0.27486 0.689981,0.57757 1.026303,0.87619 l 0.495668,-0.50951 c -0.210525,-0.25058 -0.444783,-0.47723 -0.690468,-0.69323 -0.206667,-0.18005 -0.437654,-0.36712 -0.650083,-0.52365 z"
       sodipodi:nodetypes="csssscccsssccssssccccccssccccssssscssscssscssssssssssssssccccsssccscscccsssssssssssssccssssssccccsscccsssssssccccsccccccsssssccssssssccccccscsscccssssssssssssssscssscssssssccssccccccscc" /><path
       id="path20-4-7"
       style="fill:#ffffff;fill-opacity:1;stroke-width:0.488343"
       d="m 118.58387,40.117178 c -0.25979,-7e-5 -0.51603,0.22259 -0.51998,0.55086 -0.005,0.26349 0.24749,0.43189 0.51808,0.43111 0.0439,-1.3e-4 0.51647,-0.0657 0.47682,-0.51406 -0.023,-0.25701 -0.18801,-0.46783 -0.47492,-0.46791 z m -1.64659,7.02465 c -1.31116,0 -2.31993,0.7492 -2.6707,1.80538 -0.44415,1.33716 -0.0583,2.72855 0.79263,3.77477 0.45626,0.56095 0.97854,1.03563 1.68625,1.35164 0.49523,0.22112 1.17651,0.38212 1.76223,0.37449 0.79278,-0.0103 1.49985,-0.30748 1.98507,-0.96754 0.37729,-0.55558 0.52062,-1.32114 0.38281,-2.21142 -0.10309,-0.66606 -0.26981,-1.27437 -0.60237,-1.84398 -0.76748,-1.3145 -2.1093,-2.28334 -3.33592,-2.28334 z m -0.0558,0.8237 c 0.92126,0.0185 1.93863,0.64717 2.5806,1.68323 0.25189,0.40651 0.64168,1.18588 0.59202,2.19426 -0.0405,0.82076 -0.34306,1.75038 -1.50327,1.76499 -0.40059,0.005 -0.90797,-0.0836 -1.27721,-0.2145 v -2.5e-4 c -2.02472,-0.71808 -3.02666,-3.49927 -1.75237,-4.86447 0.37085,-0.39728 0.85074,-0.57348 1.36023,-0.56326 z m 10.74644,4.07256 c -0.11149,0 -0.20188,0.0904 -0.20188,0.20189 0,0.1115 0.0904,0.20188 0.20188,0.20188 0.11149,0 0.20188,-0.0904 0.20188,-0.20188 0,-0.1115 -0.0904,-0.20189 -0.20188,-0.20189 z m -28.73399,0.15394 c -0.227959,0.009 -0.349556,0.20405 -0.358591,0.33671 -0.01123,0.16614 0.129949,0.3439 0.369481,0.3439 0.184936,0 0.358981,-0.1456 0.358981,-0.33614 0,-0.19238 -0.186742,-0.35187 -0.369871,-0.34447 z m 6.50723,2.44964 c -1.80848,0 -3.28919,1.44177 -3.27229,3.25568 0.008,0.91966 0.38667,1.70063 0.96047,2.25533 0.59978,0.57985 1.41341,0.91253 2.24218,0.89739 1.30412,-0.0238 1.99928,-0.7607 2.24775,-0.99809 0.5217,-0.49837 0.94895,-1.43122 0.9509,-2.26416 0,-0.75142 -0.31855,-1.51708 -0.84893,-2.13671 -0.59793,-0.69854 -1.30032,-1.00944 -2.28008,-1.00944 z m -0.10646,0.78888 c 1.26252,-0.0448 2.35777,0.97721 2.36456,2.43551 0.005,0.64044 -0.23768,1.19912 -0.71518,1.66253 -0.42383,0.4329 -1.00032,0.62006 -1.59615,0.65008 -0.61658,0.0136 -1.27345,-0.1801 -1.7468,-0.66925 -0.39737,-0.4106 -0.60262,-0.9627 -0.62084,-1.52829 -0.0303,-0.93713 0.45289,-1.91145 1.42484,-2.34138 0.2978,-0.13173 0.59818,-0.19887 0.88957,-0.2092 z m 25.32115,1.04905 c -0.14275,0 -0.25843,0.11569 -0.25843,0.25841 0,0.14272 0.11568,0.25842 0.25843,0.25842 0.14269,0 0.25838,-0.1157 0.25838,-0.25842 0,-0.14272 -0.11569,-0.25841 -0.25838,-0.25841 z m -11.89214,3.01114 c -0.30966,0.0108 -0.59559,0.25317 -0.59559,0.6266 0,0.38649 0.28314,0.5917 0.58421,0.5721 0.48507,-0.0316 0.5531,-0.39538 0.56858,-0.56376 0.0278,-0.30226 -0.16086,-0.64898 -0.5572,-0.63494 z m 13.33763,7.03475 c -0.24529,0 -0.44415,0.19885 -0.44415,0.44415 0,0.2453 0.19886,0.44415 0.44415,0.44415 0.2453,0 0.44415,-0.19886 0.44415,-0.44415 0,-0.2453 -0.19885,-0.44415 -0.44415,-0.44415 z m -7.01398,14.27071 c -0.44546,0 -0.76709,0.32728 -0.76709,0.80964 0,0.58693 0.5448,0.75478 0.74478,0.75808 0.46558,0.008 0.80078,-0.29618 0.80078,-0.7876 0,-0.5023 -0.37739,-0.78012 -0.77847,-0.78012 z"
       sodipodi:nodetypes="sssssssssscsssssssccssssssssssssssssscssssccssssssssscssscssssssssss" /><path
       style="fill:#ffffff;fill-opacity:1;stroke-width:0.488343"
       d="m 85.560034,76.350048 -0.731343,0.0119 c 0.07042,0.22748 0.236065,0.61943 0.42774,1.00262 0.276061,0.55181 0.692325,1.19663 1.265347,1.81017 0.393654,0.42152 0.886881,0.81975 1.356911,1.19719 l 0.207937,0.16681 c 0.387403,-0.13352 0.727583,-0.26848 1.049548,-0.40302 -0.736911,-0.39099 -1.36536,-0.94948 -1.963336,-1.5404 -0.598612,-0.60369 -1.045251,-1.17473 -1.316037,-1.68853 -0.106703,-0.2025 -0.216043,-0.40068 -0.296767,-0.5567 z"
       id="path36-6" /><path
       style="fill:#ffffff;fill-opacity:1;stroke-width:0.488343"
       d="m 94.146773,71.642308 c -0.158321,0.003 -0.351265,0.0805 -0.55344,0.25059 0,9.8e-4 0,10e-4 -0.0049,0.002 -0.284704,0.41435 -0.586159,0.81524 -0.893327,1.21385 -0.302577,0.39163 -0.678846,0.87206 -0.834042,1.09347 -0.184496,0.26321 -0.398537,0.50596 -0.612724,0.76187 -0.09781,0.13169 -0.187231,0.27211 -0.345747,0.28087 -0.113931,0.006 -0.207693,-0.081 -0.37876,-0.23369 -0.227421,-0.20293 -0.601981,-0.55591 -0.997832,-0.92741 -0.160616,-0.15069 -0.429742,-0.16937 -0.592556,-0.0207 -0.192651,0.17605 -0.111,0.43993 0.01612,0.60642 0.178343,0.18742 0.417436,0.43511 0.774757,0.80174 0.227421,0.23339 0.468077,0.46479 0.628888,0.60793 0.178685,0.15911 0.38545,0.26856 0.47467,0.27003 0.112319,0.002 0.386915,-0.0297 0.661901,-0.33514 0.332366,-0.36908 0.623322,-0.73097 1.182572,-1.37232 0.344283,-0.39484 0.619269,-0.70068 0.941576,-1.16716 0.176145,-0.255 0.477892,-0.63203 0.705558,-0.95114 0.28446,-0.3987 0.153535,-0.8875 -0.174094,-0.88149 z"
       id="path31-1" /><path
       style="fill:#ffffff;fill-opacity:1;stroke-width:0.488343"
       d="m 92.709578,68.431548 c -0.279332,0.0784 -0.519255,0.16882 -0.764111,0.40504 0.292176,0.18332 0.708782,0.52566 1.001104,0.71341 0.43448,0.27907 0.744773,0.50966 0.985966,0.70787 0.367918,0.3024 0.562279,0.43693 0.721723,0.57008 0.129899,-0.2004 0.335736,-0.35818 0.50651,-0.53021 -0.297011,-0.30134 -0.868764,-0.81206 -1.319602,-1.15454 -0.523602,-0.39773 -0.977322,-0.714 -1.13159,-0.71165 z"
       id="path30-8" /><path
       style="fill:#ffffff;fill-opacity:1;stroke-width:0.488343"
       d="m 109.29158,63.671308 c -0.11652,0.008 -0.20296,0.20853 -0.34829,0.55645 -0.0949,0.22727 -0.20842,0.54906 -0.38354,0.87392 -0.99676,1.84884 -1.13853,2.05331 -2.18343,3.14565 -0.49846,0.5211 -0.89807,0.88941 -1.38343,1.25069 -0.50168,0.37344 -1.09492,0.73941 -1.9838,1.25902 -0.25912,0.15149 -1.08305,0.51939 -1.25876,0.5779 -0.24734,0.0824 -0.316,0.20976 -0.28719,0.28894 0.0259,0.071 0.1593,0.10663 0.39473,0.0454 0.35693,-0.0927 1.98941,-0.70091 2.57225,-0.9948 0.91369,-0.46067 1.69314,-1.09426 2.44309,-1.89597 1.02171,-1.09222 1.80169,-2.3414 2.19627,-3.60342 0.0858,-0.27445 0.22913,-0.59731 0.29652,-0.87418 0.0425,-0.22083 0.15852,-0.62312 -0.0631,-0.62963 -0.005,-1.4e-4 -0.008,-2.6e-4 -0.0112,0 z"
       id="path27-9" /><path
       style="fill:#ffffff;fill-opacity:1;stroke-width:0.488343"
       d="m 121.81339,39.148028 c -0.0103,-3.8e-4 -0.021,-2.3e-4 -0.0313,2.6e-4 -0.12946,0.006 -0.25682,0.08 -0.42598,0.21703 -0.42144,0.34126 -0.45655,1.18811 -0.14054,3.38337 0.48497,3.36928 0.62259,5.91415 0.38662,8.03736 -0.11042,0.99313 -0.30873,1.82469 -0.5802,2.73153 -0.17029,0.56907 -0.30961,1.21621 -0.30961,1.43819 0,0.27375 0.0519,0.6274 0.29979,0.97839 0.26293,0.3722 0.73735,0.74644 1.27619,1.20148 0.89665,0.7572 1.44598,1.37752 1.8349,2.17458 0.24158,0.49519 0.54602,1.24961 0.6619,1.89445 0.13039,1.16197 0.0529,2.3823 0.0122,3.61731 -0.0361,1.09918 -0.10612,2.28833 -0.19353,3.31952 -0.0787,0.928 -0.14894,1.75037 -0.24881,2.2359 -0.19143,0.93033 -0.44259,1.51963 -1.09423,2.76181 -4.8597,9.26364 -8.64734,14.773619 -13.3937,19.483589 -1.40931,1.3985 -2.23148,2.11143 -2.7252,2.36258 -0.69662,0.35437 -0.70771,0.35568 -0.74951,0.0881 -0.10543,-0.67469 1.38548,-3.16473 4.06878,-6.795 0.83385,-1.12817 1.88056,-2.59548 2.32573,-3.26048 2.31163,-3.453119 3.40137,-6.757139 3.66473,-11.110579 0.1716,-2.8366 0.32939,-3.36627 1.67897,-5.64022 0.3374,-0.56851 0.68559,-1.26026 0.77398,-1.53737 0.34262,-1.0741 -0.13654,-2.90926 -1.23356,-4.72389 -0.61853,-1.02318 -1.3762,-2.02254 -3.74349,-4.9374 -3.25066,-4.00265 -5.79771,-8.12191 -6.97315,-11.27764 -0.4294,-1.15279 -0.73887,-2.65457 -0.54709,-2.65457 0.04,0 1.10468,1.55534 2.36533,3.45631 1.26066,1.90096 2.70367,4.00866 3.20671,4.68377 1.09575,1.47056 2.69024,3.22611 3.63728,3.92847 0.80875,0.59982 2.18143,1.26446 2.73101,1.31983 0.16755,0.0169 0.31347,0.0187 0.37749,-0.0338 0.0653,-0.0536 0.0474,-0.16322 0.0654,-0.32024 0.0112,-0.0966 0.02,-0.20261 -0.008,-0.27482 -0.0444,-0.11657 -0.15158,-0.17762 -0.25438,-0.21249 -1.00823,-0.3421 -2.42765,-1.14376 -3.11661,-1.78165 -1.617,-1.49705 -3.80009,-4.38093 -6.32815,-8.35963 -1.96572,-3.09363 -2.52898,-3.67452 -3.16129,-3.26022 -0.40601,0.26602 -0.4965,0.7635 -0.32958,1.8084 0.18943,1.18581 0.41099,1.81054 1.33469,3.76216 1.18584,2.5054 1.85727,3.59038 4.77639,7.71738 0.19748,0.27919 0.95334,1.23426 1.6797,2.12233 3.76044,4.59771 4.74148,6.22593 4.73601,7.86173 -0.005,0.98319 -0.17429,1.45278 -1.06923,2.93619 -0.39771,0.65923 -0.8066,1.43714 -0.90846,1.72866 -0.26078,0.7459 -0.45153,2.13716 -0.59154,4.31508 -0.30624,4.76358 -1.52773,7.58373 -5.70888,13.179169 -3.53726,4.7338 -4.94203,7.5586 -4.17855,8.40227 0.36972,0.40851 0.85015,0.30835 1.95073,-0.40629 1.95201,-1.2675 6.51743,-6.2422 9.1455,-9.96514 0.33818,-0.47907 0.6601,-0.89893 0.71518,-0.93297 0.12902,-0.0798 -0.15241,1.68748 -0.6473,4.06499 -0.46334,2.22573 -0.77124,3.7649 -0.9908,4.83141 -0.20979,1.01933 -0.25809,1.95245 -0.38608,2.93164 -0.0308,0.38646 -0.0425,1.04838 0.0483,1.41321 0.0635,0.25385 0.18806,0.35812 0.34726,0.54913 0.10412,0.12501 0.25126,0.16959 0.41182,0.16959 0.47384,0 0.82247,-0.35345 1.08212,-0.74294 0.61424,-0.72962 0.93464,-1.47944 1.31331,-2.33381 1.23038,-2.72488 2.37466,-6.02967 3.14361,-9.07936 1.10654,-4.388579 1.96617,-8.679059 2.34288,-11.693279 0.0657,-0.52572 0.10939,-1.10996 0.20847,-1.59162 0.11432,-0.55588 0.289,-0.99921 0.43809,-1.45081 0.51975,-1.57462 0.65077,-2.68213 0.85045,-7.18869 0.0469,-1.29658 0.19143,-2.47874 -0.0259,-3.638 -0.12375,-0.65929 -0.45816,-1.50709 -0.85401,-2.2518 l -0.44161,-0.80982 c 0.16227,-1.00475 0.33383,-2.00798 0.48224,-3.01492 0.29164,-1.99454 0.33261,-3.05134 0.26878,-5.10244 -0.041,-1.32464 -0.16418,-2.96652 -0.27333,-3.6486 -0.49474,-3.09296 -1.54028,-6.02669 -2.40748,-6.75639 -0.25008,-0.21045 -0.41504,-0.31471 -0.57185,-0.32024 z m 0.14738,1.08035 c 0,-1.4e-4 0,-10e-6 0.005,0 h 3e-4 c 0.0469,3.6e-4 0.1338,0.1384 0.31996,0.45298 0.42066,0.71078 1.07509,2.54865 1.40335,3.94083 0.44688,1.89506 0.68188,4.5822 0.59861,6.848 -0.0342,0.92766 -0.16291,2.33903 -0.30209,3.51157 -0.13087,1.10281 -0.27098,1.99435 -0.34999,2.07338 h -2.5e-4 -2.4e-4 l -2.9e-4,2.5e-4 v 2.6e-4 c -0.21688,-0.14276 -0.98353,-0.75497 -1.00414,-0.77298 -0.41269,-0.36106 -0.64568,-0.56822 -0.77573,-0.73689 -0.16003,-0.20756 -0.2993,-0.42895 -0.25237,-0.73108 0.0549,-0.35366 0.25115,-0.93717 0.39897,-1.49876 0.18054,-0.68559 0.29814,-1.52468 0.38487,-2.43298 0.21809,-2.28433 0.1381,-5.16009 -0.24833,-8.06008 -0.1508,-1.13181 -0.25672,-2.20746 -0.23543,-2.39034 0.0147,-0.12718 0.0273,-0.19999 0.0595,-0.20416 z m 1.28576,34.77248 c 0.007,1.8e-4 0.0112,0.004 0.0147,0.0129 0.10778,0.31299 -1.30412,7.48128 -2.10667,10.696209 -0.62991,2.52354 -1.533,5.37144 -2.37671,7.49404 -0.26356,0.66311 -0.6517,1.48301 -0.99959,2.1453 -0.0435,0.10031 -0.09,0.20026 -0.13147,0.30409 -0.1716,0.42901 -0.42637,0.79408 -0.66219,1.1871 -0.10138,0.16895 -0.18767,0.34173 -0.30688,0.50068 -0.0527,0.0703 -0.23001,0.21274 -0.33109,0.14536 -0.10465,-0.0698 -0.0808,-0.44722 -0.0808,-0.56529 -0.0405,-0.82682 0.12355,-1.65408 0.24959,-2.48926 0.11798,-0.78423 0.39961,-1.84755 0.71293,-3.3599 0.77666,-3.74914 0.99769,-5.07953 1.11162,-6.68599 0.0308,-0.4366 0.0312,-0.736459 0.0803,-0.970319 0.068,-0.32449 0.20325,-0.52714 0.40752,-0.83859 0.86779,-1.32291 3.15661,-5.2947 3.89088,-6.75159 0.23924,-0.47469 0.45895,-0.81645 0.52516,-0.82446 h 2.5e-4 2.4e-4 2.5e-4 2.9e-4 2.4e-4 2.5e-4 c 4.4e-4,-2e-5 0,-2.6e-4 0,-2.5e-4 z m -4.97495,12.357989 c -0.11315,0.01 -0.20193,0.11511 -0.20193,0.26271 0,0.15871 0.14211,0.22056 0.26195,0.22056 0.12037,0 0.23875,-0.14228 0.21404,-0.26977 -0.0332,-0.17221 -0.14001,-0.22523 -0.27406,-0.2135 z"
       id="path1-1-9-2"
       sodipodi:nodetypes="ccsssssssscsssssssssssssssssssssccsssssssscssssssssssccssccsssscccccccscccssssssccccccssssscccscsscssssccscsssscccccscscsscc" /></g></svg>
